<svg width="5608" height="5608" viewBox="0 0 5608 5608" fill="none" xmlns="http://www.w3.org/2000/svg">
<mask id="mask0_264_1225" style="mask-type:alpha" maskUnits="userSpaceOnUse" x="4216" y="0" width="1392" height="1392">
<circle cx="696" cy="696" r="696" transform="matrix(-1 0 0 1 5608 0)" fill="#FFEDEF"/>
</mask>
<g mask="url(#mask0_264_1225)">
<path d="M4714.31 1364.4C4767.05 1291.14 4808.33 1112.87 4813.21 1042.05L5064.14 933.981L5168.54 1364.4H4714.31Z" fill="#FC909F" stroke="black" stroke-width="14.6526"/>
<mask id="mask1_264_1225" style="mask-type:alpha" maskUnits="userSpaceOnUse" x="4714" y="933" width="455" height="432">
<path d="M4714.31 1364.4C4767.05 1291.14 4808.33 1112.87 4813.21 1042.05L5064.14 933.981L5168.54 1364.4H4714.31Z" fill="#FFEDEF"/>
</mask>
<g mask="url(#mask1_264_1225)">
<ellipse cx="216.126" cy="197.811" rx="216.126" ry="197.811" transform="matrix(-1 0 0 1 5040.21 728.971)" fill="black"/>
</g>
<g clip-path="url(#clip0_264_1225)">
<path d="M4714.19 1327.9C4766.94 1254.63 4808.21 1112.99 4813.09 1042.17L5064.02 934.107L5168.42 1327.9H4714.19Z" fill="#F9C9B6" stroke="black" stroke-width="14.6526"/>
<mask id="mask2_264_1225" style="mask-type:alpha" maskUnits="userSpaceOnUse" x="4714" y="934" width="455" height="431">
<path d="M4714.19 1364.53C4766.94 1291.27 4808.21 1112.99 4813.09 1042.17L5064.02 934.107L5168.42 1364.53H4714.19Z" fill="#F9C9B6"/>
</mask>
<g mask="url(#mask2_264_1225)">
<g style="mix-blend-mode:multiply">
<ellipse cx="216.126" cy="197.811" rx="216.126" ry="197.811" transform="matrix(-1 0 0 1 5040.21 728.97)" fill="black"/>
</g>
</g>
<mask id="path-8-inside-1_264_1225" fill="white">
<path fill-rule="evenodd" clip-rule="evenodd" d="M4604.71 710.354C4604.81 709.929 4604.91 709.504 4605.01 709.079C4605.11 708.654 4605.22 708.23 4605.32 707.806L4665.38 457.109C4665.44 456.862 4665.5 456.615 4665.56 456.368C4665.62 456.121 4665.68 455.874 4665.74 455.627L4666.01 454.511L4666.01 454.512C4703.44 302.694 4856.48 209.343 5008.77 245.831C5161.06 282.32 5255.18 434.885 5219.74 587.182L5219.75 587.184L5157.51 846.967L5157.46 846.955C5118.62 996.795 4966.72 1088.51 4815.55 1052.29C4664.38 1016.07 4570.53 865.478 4603.81 714.305L4603.76 714.295L4604.71 710.354Z"/>
</mask>
<path fill-rule="evenodd" clip-rule="evenodd" d="M4604.71 710.354C4604.81 709.929 4604.91 709.504 4605.01 709.079C4605.11 708.654 4605.22 708.23 4605.32 707.806L4665.38 457.109C4665.44 456.862 4665.5 456.615 4665.56 456.368C4665.62 456.121 4665.68 455.874 4665.74 455.627L4666.01 454.511L4666.01 454.512C4703.44 302.694 4856.48 209.343 5008.77 245.831C5161.06 282.32 5255.18 434.885 5219.74 587.182L5219.75 587.184L5157.51 846.967L5157.46 846.955C5118.62 996.795 4966.72 1088.51 4815.55 1052.29C4664.38 1016.07 4570.53 865.478 4603.81 714.305L4603.76 714.295L4604.71 710.354Z" fill="#F9C9B6"/>
<path d="M4604.71 710.354L4618.97 713.704L4618.97 713.736L4618.96 713.768L4604.71 710.354ZM4605.01 709.079L4590.76 705.665L4590.76 705.665L4605.01 709.079ZM4605.32 707.806L4619.57 711.22L4619.56 711.252L4619.55 711.283L4605.32 707.806ZM4665.38 457.109L4679.64 460.487L4679.64 460.505L4679.63 460.523L4665.38 457.109ZM4665.74 455.627L4679.99 459.041L4679.98 459.06L4679.98 459.078L4665.74 455.627ZM4666.01 454.511L4651.76 451.097L4655.17 436.868L4669.4 440.257L4666.01 454.511ZM4666.01 454.512L4680.24 458.02L4676.76 472.133L4662.62 468.767L4666.01 454.512ZM5008.77 245.831L5005.36 260.081L5005.36 260.081L5008.77 245.831ZM5219.74 587.182L5216.31 601.427L5202.18 598.022L5205.47 583.862L5219.74 587.182ZM5219.75 587.184L5223.18 572.938L5237.41 576.366L5234 590.598L5219.75 587.184ZM5157.51 846.967L5171.76 850.381L5168.35 864.627L5154.1 861.217L5157.51 846.967ZM5157.46 846.955L5143.27 843.278L5146.88 829.357L5160.87 832.705L5157.46 846.955ZM4815.55 1052.29L4818.96 1038.04L4818.96 1038.04L4815.55 1052.29ZM4603.81 714.305L4607.22 700.056L4621.21 703.407L4618.12 717.456L4603.81 714.305ZM4603.76 714.295L4600.35 728.544L4586.1 725.13L4589.52 710.88L4603.76 714.295ZM4590.44 707.004C4590.55 706.559 4590.65 706.112 4590.76 705.665L4619.26 712.493C4619.16 712.896 4619.07 713.3 4618.97 713.704L4590.44 707.004ZM4590.76 705.665C4590.87 705.218 4590.98 704.773 4591.09 704.329L4619.55 711.283C4619.45 711.687 4619.36 712.09 4619.26 712.494L4590.76 705.665ZM4679.63 460.523L4619.57 711.22L4591.07 704.392L4651.13 453.695L4679.63 460.523ZM4651.13 453.731C4651.19 453.473 4651.25 453.214 4651.31 452.953L4679.81 459.782C4679.75 460.016 4679.7 460.251 4679.64 460.487L4651.13 453.731ZM4651.31 452.953C4651.37 452.694 4651.44 452.435 4651.5 452.175L4679.98 459.078C4679.92 459.313 4679.87 459.547 4679.81 459.782L4651.31 452.953ZM4680.26 457.925L4679.99 459.041L4651.49 452.213L4651.76 451.097L4680.26 457.925ZM4662.62 468.767L4662.61 468.765L4669.4 440.257L4669.41 440.258L4662.62 468.767ZM4651.78 451.005C4691.14 291.371 4852.05 193.216 5012.18 231.582L5005.36 260.081C4860.9 225.471 4715.74 314.017 4680.24 458.02L4651.78 451.005ZM5012.18 231.582C5172.31 269.948 5271.27 430.365 5234.02 590.502L5205.47 583.862C5239.08 439.405 5149.81 294.691 5005.36 260.081L5012.18 231.582ZM5216.32 601.429L5216.31 601.427L5223.18 572.937L5223.18 572.938L5216.32 601.429ZM5143.26 843.553L5205.5 583.77L5234 590.598L5171.76 850.381L5143.26 843.553ZM5160.87 832.705L5160.92 832.717L5154.1 861.217L5154.05 861.205L5160.87 832.705ZM5171.64 850.631C5130.8 1008.19 4971.09 1104.62 4812.13 1066.54L4818.96 1038.04C4962.35 1072.39 5106.44 985.401 5143.27 843.278L5171.64 850.631ZM4812.13 1066.54C4653.18 1028.45 4554.51 870.113 4589.5 711.155L4618.12 717.456C4586.55 860.842 4675.57 1003.68 4818.96 1038.04L4812.13 1066.54ZM4607.18 700.045L4607.22 700.056L4600.4 728.555L4600.35 728.544L4607.18 700.045ZM4618.96 713.768L4618.01 717.709L4589.52 710.88L4590.46 706.94L4618.96 713.768Z" fill="black" mask="url(#path-8-inside-1_264_1225)"/>
</g>
<path d="M4950.46 807.727C4941.3 870 4836.9 899.306 4741.66 827.874" stroke="black" stroke-width="14.6526"/>
<path d="M4805.77 484.323C4785.01 474.554 4736.17 465.641 4706.86 508.133" stroke="black" stroke-width="14.6526" stroke-linecap="round"/>
<path d="M5082.05 577.025C5074.46 555.374 5046.58 514.294 4995.73 523.182" stroke="black" stroke-width="14.6526" stroke-linecap="round"/>
<path d="M4938.42 177.621L4938.14 177.651L4937.86 177.659C4840.16 180.533 4764.22 219.411 4710.48 266.858C4658.99 312.314 4628.24 365.301 4618.21 401.415C4633.09 409.903 4658.56 417.208 4691.05 423.198C4726.5 429.733 4769.05 434.505 4812.48 437.907C4899.32 444.709 4989 445.985 5030.89 445.075L5053.14 444.591L5035.53 458.197C5026.38 465.266 5014.21 470.187 5001.32 473.647C4988.35 477.132 4974.15 479.27 4960.55 480.485C4946.54 481.737 4932.88 482.031 4921.57 481.742C4960.35 511.641 5009.71 534.63 5058.38 551.67C5114.6 571.352 5169.27 582.882 5204.28 588.014L5212.16 589.167L5210.36 596.918C5198.1 649.772 5175.56 742.165 5160.44 804.134C5153.73 831.627 5148.48 853.132 5146.24 862.538C5142.27 879.22 5129.77 902.998 5115.49 924.916C5102.33 945.124 5086.98 964.803 5074.02 976.915L5102.73 1093.45H5211.02C5180.47 1046.88 5174.03 993.072 5180.25 936C5187 874.224 5208.69 807.772 5231.55 741.239C5233.8 734.69 5236.06 728.139 5238.32 721.59C5259.15 661.298 5279.91 601.173 5291.16 543.548C5303.62 479.72 5304.17 419.985 5280.78 367.464C5242.91 282.429 5175.77 233.049 5108.62 205.836C5041.3 178.56 4974.47 173.779 4938.42 177.621Z" fill="white" stroke="black" stroke-width="14.6526"/>
<ellipse cx="32.9684" cy="36.6316" rx="32.9684" ry="36.6316" transform="matrix(-0.993014 -0.117996 -0.117996 0.993014 5029.05 582.744)" fill="black"/>
<ellipse cx="32.9684" cy="36.6316" rx="32.9684" ry="36.6316" transform="matrix(-0.994007 -0.109312 -0.109312 0.994007 4794.21 545.777)" fill="black"/>
<path d="M4863.55 619.106C4856.42 669.891 4825.42 706.225 4825.42 706.225C4825.42 706.225 4835.05 729.774 4872.35 727.617" stroke="black" stroke-width="14.6526"/>
<path d="M5128.13 667.609V663.509L5131.62 661.365C5145.3 652.972 5161.93 648.38 5179.12 648.38C5199.78 648.38 5219.12 654.781 5232.9 667.776C5246.83 680.917 5254.35 700.131 5252.35 724.083C5250.41 747.423 5242.57 764.602 5229.58 776.016C5230.65 779.676 5230.96 783.622 5230.47 787.775C5229.04 799.747 5222.99 808.374 5213.63 813.69C5204.72 818.757 5193.31 820.547 5181.15 820.547C5161.08 820.547 5143.48 809.752 5130.08 795.313L5128.13 793.205V790.329V667.609Z" stroke="black" stroke-width="14.6526"/>
<path fill-rule="evenodd" clip-rule="evenodd" d="M5106.25 725.247C5105.99 722.859 5105.85 720.435 5105.85 717.98C5105.85 680.552 5140.68 655.706 5179.12 655.706C5217.56 655.706 5248.72 679.516 5245.05 723.474C5243.02 747.935 5234.26 764.033 5220.69 773.722C5222.85 777.473 5223.79 781.878 5223.19 786.908C5220.89 806.256 5204.37 813.221 5181.15 813.221C5140.47 813.221 5108.29 761.766 5106.25 725.247Z" fill="#F9C9B6"/>
<path d="M5162.93 686.844C5177.58 680.129 5209.81 676.588 5221.54 716.15" stroke="black" stroke-width="14.6526"/>
<path d="M5201.39 688.674C5193.45 695.39 5178.31 716.148 5181.24 745.453" stroke="black" stroke-width="14.6526"/>
<path d="M4422.26 1402.99H5423.47C5363.76 1295.51 5278.84 1227.09 5141.15 1195.7C5082.49 1182.33 5014.16 1175.66 4933.98 1175.66C4899.34 1175.66 4872.39 1180.94 4846.81 1187.91C4837.34 1190.5 4827.81 1193.39 4818.07 1196.35C4801.94 1201.25 4785.21 1206.33 4767.11 1210.49L4766.6 1210.61L4766.08 1210.65C4597.11 1224.59 4495.79 1299.64 4422.26 1402.99Z" fill="#77311D" stroke="black" stroke-width="14.6526"/>
<path d="M5183.33 1203.65L5149.8 1131.86C5149 1130.15 5147.01 1129.33 5145.23 1129.96C5006.3 1179.14 4879.91 1175.68 4762.78 1143.07C4761.31 1142.66 4759.73 1143.21 4758.83 1144.44L4707.79 1214.23C4706.39 1216.15 4707.1 1218.86 4709.32 1219.72C4832.42 1268.07 5063.43 1259.85 5181.56 1208.49C5183.43 1207.68 5184.2 1205.5 5183.33 1203.65Z" fill="white" stroke="black" stroke-width="14.6526"/>
</g>
<mask id="mask3_264_1225" style="mask-type:alpha" maskUnits="userSpaceOnUse" x="4216" y="4216" width="1392" height="1392">
<circle cx="696" cy="696" r="696" transform="matrix(-1 0 0 1 5608 4216)" fill="#FFEDEF"/>
</mask>
<g mask="url(#mask3_264_1225)">
<path d="M4714.31 5580.4C4767.06 5507.14 4808.33 5328.87 4813.21 5258.05L5064.14 5149.98L5168.54 5580.4H4714.31Z" fill="#FC909F" stroke="black" stroke-width="14.6526"/>
<mask id="mask4_264_1225" style="mask-type:alpha" maskUnits="userSpaceOnUse" x="4714" y="5149" width="455" height="432">
<path d="M4714.31 5580.4C4767.06 5507.14 4808.33 5328.87 4813.21 5258.05L5064.14 5149.98L5168.54 5580.4H4714.31Z" fill="#FFEDEF"/>
</mask>
<g mask="url(#mask4_264_1225)">
<ellipse cx="216.126" cy="197.811" rx="216.126" ry="197.811" transform="matrix(-1 0 0 1 5040.21 4944.97)" fill="black"/>
</g>
<g clip-path="url(#clip1_264_1225)">
<path d="M4714.2 5543.9C4766.95 5470.63 4808.22 5328.99 4813.11 5258.17L5064.03 5150.11L5168.43 5543.9H4714.2Z" fill="#77311D" stroke="black" stroke-width="14.6526"/>
<mask id="mask5_264_1225" style="mask-type:alpha" maskUnits="userSpaceOnUse" x="4714" y="5150" width="455" height="431">
<path d="M4714.2 5580.53C4766.95 5507.27 4808.22 5328.99 4813.11 5258.17L5064.03 5150.11L5168.43 5580.53H4714.2Z" fill="#AC6651"/>
</mask>
<g mask="url(#mask5_264_1225)">
<g style="mix-blend-mode:multiply">
<ellipse cx="216.126" cy="197.811" rx="216.126" ry="197.811" transform="matrix(-1 0 0 1 5040.22 4944.97)" fill="black"/>
</g>
</g>
<mask id="path-30-inside-2_264_1225" fill="white">
<path fill-rule="evenodd" clip-rule="evenodd" d="M4604.72 4926.35C4604.82 4925.93 4604.92 4925.5 4605.02 4925.08C4605.13 4924.65 4605.23 4924.23 4605.33 4923.81L4665.4 4673.11C4665.46 4672.86 4665.51 4672.61 4665.57 4672.37C4665.63 4672.12 4665.69 4671.87 4665.75 4671.63L4666.02 4670.51L4666.02 4670.51C4703.45 4518.69 4856.49 4425.34 5008.78 4461.83C5161.07 4498.32 5255.19 4650.88 5219.76 4803.18L5219.76 4803.18L5157.52 5062.97L5157.47 5062.95C5118.63 5212.79 4966.73 5304.51 4815.56 5268.29C4664.39 5232.07 4570.54 5081.48 4603.82 4930.31L4603.78 4930.29L4604.72 4926.35Z"/>
</mask>
<path fill-rule="evenodd" clip-rule="evenodd" d="M4604.72 4926.35C4604.82 4925.93 4604.92 4925.5 4605.02 4925.08C4605.13 4924.65 4605.23 4924.23 4605.33 4923.81L4665.4 4673.11C4665.46 4672.86 4665.51 4672.61 4665.57 4672.37C4665.63 4672.12 4665.69 4671.87 4665.75 4671.63L4666.02 4670.51L4666.02 4670.51C4703.45 4518.69 4856.49 4425.34 5008.78 4461.83C5161.07 4498.32 5255.19 4650.88 5219.76 4803.18L5219.76 4803.18L5157.52 5062.97L5157.47 5062.95C5118.63 5212.79 4966.73 5304.51 4815.56 5268.29C4664.39 5232.07 4570.54 5081.48 4603.82 4930.31L4603.78 4930.29L4604.72 4926.35Z" fill="#77311D"/>
<path d="M4604.72 4926.35L4618.99 4929.7L4618.98 4929.74L4618.97 4929.77L4604.72 4926.35ZM4605.02 4925.08L4590.77 4921.67L4590.77 4921.66L4605.02 4925.08ZM4605.33 4923.81L4619.58 4927.22L4619.57 4927.25L4619.57 4927.28L4605.33 4923.81ZM4665.4 4673.11L4679.65 4676.49L4679.65 4676.5L4679.65 4676.52L4665.4 4673.11ZM4665.75 4671.63L4680 4675.04L4680 4675.06L4679.99 4675.08L4665.75 4671.63ZM4666.02 4670.51L4651.77 4667.1L4655.18 4652.87L4669.41 4656.26L4666.02 4670.51ZM4666.02 4670.51L4680.25 4674.02L4676.77 4688.13L4662.63 4684.77L4666.02 4670.51ZM5008.78 4461.83L5005.37 4476.08L5005.37 4476.08L5008.78 4461.83ZM5219.76 4803.18L5216.33 4817.43L5202.19 4814.02L5205.49 4799.86L5219.76 4803.18ZM5219.76 4803.18L5223.2 4788.94L5237.42 4792.37L5234.01 4806.6L5219.76 4803.18ZM5157.52 5062.97L5171.77 5066.38L5168.36 5080.63L5154.11 5077.22L5157.52 5062.97ZM5157.47 5062.95L5143.29 5059.28L5146.9 5045.36L5160.88 5048.7L5157.47 5062.95ZM4815.56 5268.29L4818.97 5254.04L4818.97 5254.04L4815.56 5268.29ZM4603.82 4930.31L4607.24 4916.06L4621.23 4919.41L4618.13 4933.46L4603.82 4930.31ZM4603.78 4930.29L4600.36 4944.54L4586.11 4941.13L4589.53 4926.88L4603.78 4930.29ZM4590.46 4923C4590.56 4922.56 4590.67 4922.11 4590.77 4921.67L4619.27 4928.49C4619.18 4928.9 4619.08 4929.3 4618.99 4929.7L4590.46 4923ZM4590.77 4921.66C4590.88 4921.22 4590.99 4920.77 4591.1 4920.33L4619.57 4927.28C4619.47 4927.69 4619.37 4928.09 4619.27 4928.49L4590.77 4921.66ZM4679.65 4676.52L4619.58 4927.22L4591.08 4920.39L4651.15 4669.7L4679.65 4676.52ZM4651.14 4669.73C4651.2 4669.47 4651.26 4669.21 4651.32 4668.95L4679.82 4675.78C4679.77 4676.02 4679.71 4676.25 4679.65 4676.49L4651.14 4669.73ZM4651.32 4668.95C4651.39 4668.69 4651.45 4668.43 4651.51 4668.18L4679.99 4675.08C4679.94 4675.31 4679.88 4675.55 4679.82 4675.78L4651.32 4668.95ZM4680.27 4673.93L4680 4675.04L4651.5 4668.21L4651.77 4667.1L4680.27 4673.93ZM4662.63 4684.77L4662.63 4684.77L4669.41 4656.26L4669.42 4656.26L4662.63 4684.77ZM4651.8 4667C4691.15 4507.37 4852.06 4409.22 5012.2 4447.58L5005.37 4476.08C4860.91 4441.47 4715.75 4530.02 4680.25 4674.02L4651.8 4667ZM5012.2 4447.58C5172.33 4485.95 5271.29 4646.37 5234.03 4806.5L5205.49 4799.86C5239.09 4655.4 5149.82 4510.69 5005.37 4476.08L5012.2 4447.58ZM5216.33 4817.43L5216.33 4817.43L5223.19 4788.94L5223.2 4788.94L5216.33 4817.43ZM5143.27 5059.55L5205.51 4799.77L5234.01 4806.6L5171.77 5066.38L5143.27 5059.55ZM5160.88 5048.7L5160.93 5048.72L5154.11 5077.22L5154.06 5077.21L5160.88 5048.7ZM5171.66 5066.63C5130.81 5224.19 4971.1 5320.62 4812.15 5282.54L4818.97 5254.04C4962.36 5288.39 5106.45 5201.4 5143.29 5059.28L5171.66 5066.63ZM4812.15 5282.54C4653.19 5244.45 4554.52 5086.11 4589.51 4927.16L4618.13 4933.46C4586.57 5076.84 4675.59 5219.68 4818.97 5254.04L4812.15 5282.54ZM4607.19 4916.05L4607.24 4916.06L4600.41 4944.55L4600.36 4944.54L4607.19 4916.05ZM4618.97 4929.77L4618.03 4933.71L4589.53 4926.88L4590.47 4922.94L4618.97 4929.77Z" fill="black" mask="url(#path-30-inside-2_264_1225)"/>
</g>
<path d="M4853.4 5020.78C4838.14 5012.24 4776.47 5001.37 4776.47 5026.28C4776.47 5057.41 4818.6 5055.58 4818.6 5055.58C4818.6 5055.58 4770.81 5044 4780.14 5077.56C4789.29 5110.53 4814.94 5097.71 4822.26 5094.05" stroke="black" stroke-width="14.6526"/>
<path d="M4879.03 4534.69C4825.31 4532.25 4731.04 4502.46 4783.79 4402.82" stroke="black" stroke-width="14.6526"/>
<path d="M4974.28 4527.37C4920.55 4524.93 4826.28 4495.13 4879.03 4395.49" stroke="black" stroke-width="14.6526"/>
<path d="M5106.15 4567.66C5052.42 4565.22 4958.16 4535.43 5010.91 4435.79" stroke="black" stroke-width="14.6526"/>
<path d="M4805.77 4700.32C4785.01 4690.56 4736.17 4681.64 4706.86 4724.13" stroke="#FC909F" stroke-width="14.6526" stroke-linecap="round"/>
<path d="M5082.05 4793.03C5074.46 4771.37 5046.58 4730.29 4995.73 4739.18" stroke="#FC909F" stroke-width="14.6526" stroke-linecap="round"/>
<path d="M5072.91 4770.82L5095.43 4750.94" stroke="#FC909F" stroke-width="14.6526" stroke-linecap="round"/>
<path d="M4718 4703.78L4695.47 4683.9" stroke="#FC909F" stroke-width="14.6526" stroke-linecap="round"/>
<path d="M5049.28 4750.14L5064.11 4724.01" stroke="#FC909F" stroke-width="14.6526" stroke-linecap="round"/>
<path d="M4745.28 4690.43L4730.46 4664.3" stroke="#FC909F" stroke-width="14.6526" stroke-linecap="round"/>
<path d="M5019.7 4736.9L5027.76 4707.97" stroke="#FC909F" stroke-width="14.6526" stroke-linecap="round"/>
<path d="M4778.53 4688.18L4770.47 4659.24" stroke="#FC909F" stroke-width="14.6526" stroke-linecap="round"/>
<path d="M4954.06 4814.49C4947.26 4837.8 4972.51 4819.91 4995.82 4826.71C5019.12 4833.52 5031.65 4862.44 5038.45 4839.14C5045.26 4815.84 5031.88 4791.43 5008.58 4784.62C4985.28 4777.82 4960.87 4791.19 4954.06 4814.49Z" fill="#6BD9E9"/>
<path d="M4720.38 4780.82C4714.4 4804.35 4737.58 4786.39 4761.1 4792.38C4784.63 4798.37 4799.59 4826.03 4805.58 4802.51C4811.57 4778.98 4797.35 4755.05 4773.83 4749.06C4750.3 4743.07 4726.37 4757.29 4720.38 4780.82Z" fill="#6BD9E9"/>
<path fill-rule="evenodd" clip-rule="evenodd" d="M5031.67 4850.08C5031.25 4853.05 5027.46 4853.72 5025.36 4851.57C5016.33 4842.35 5002.45 4835.58 4986.33 4833.67C4976.83 4832.54 4967.68 4833.23 4959.53 4835.4C4956.77 4836.13 4954.06 4833.8 4955.02 4831.11C4961.12 4814.09 4978.34 4802.91 4997.06 4805.13C5018.82 4807.72 5034.37 4827.46 5031.78 4849.22C5031.75 4849.51 5031.71 4849.79 5031.67 4850.08Z" fill="black"/>
<path fill-rule="evenodd" clip-rule="evenodd" d="M4796.87 4813.44C4796.45 4816.42 4792.67 4817.09 4790.56 4814.94C4781.61 4805.84 4767.88 4799.15 4751.94 4797.26C4742.55 4796.14 4733.51 4796.82 4725.45 4798.95C4722.69 4799.68 4719.98 4797.35 4720.94 4794.66C4727.01 4777.84 4744.05 4766.78 4762.57 4768.98C4784.13 4771.55 4799.53 4791.1 4796.97 4812.66C4796.94 4812.92 4796.9 4813.19 4796.87 4813.44Z" fill="black"/>
<path d="M4861.53 4849.62C4860.78 4863.69 4855.31 4893.87 4839.37 4901.99C4819.45 4912.14 4835.06 4945.77 4872.36 4943.62" stroke="black" stroke-width="14.6526"/>
<path d="M5442.58 5475.08C5443.14 5473.64 5443.91 5471.63 5444.85 5469.08C5446.92 5463.39 5449.81 5455.03 5453.03 5444.39C5459.47 5423.1 5467.2 5392.74 5472.35 5356.55C5482.67 5284.11 5482.6 5188.76 5441.6 5096.04C5434.97 5081.05 5426.69 5065.65 5417.71 5048.96C5383.03 4984.49 5337.98 4900.74 5337.98 4746.94C5337.98 4634.88 5283.59 4540.51 5203.52 4473.98C5123.37 4407.39 5017.81 4369 4916.42 4369C4860.99 4369 4816.43 4375.35 4780.61 4396.99C4745.02 4418.49 4716.99 4455.77 4696.17 4520C4694.06 4526.54 4687.06 4530.53 4680.21 4528.31C4638.76 4514.87 4575.92 4528.44 4522.87 4563.07C4470.05 4597.55 4429.03 4651.56 4429.03 4716.65C4429.03 4773.15 4438.71 4811.34 4448.14 4848.52C4459.57 4893.54 4470.6 4937.02 4462.82 5007.86C4460.22 5031.49 4454.94 5048.24 4447.56 5062.13C4440.3 5075.8 4431.15 5086.38 4421.5 5097.53L4421.28 5097.79C4398.3 5124.35 4387.84 5146.21 4384.46 5165.43C4381.09 5184.61 4384.62 5202 4391.18 5220.05C4394.47 5229.11 4398.48 5238.22 4402.73 5247.81L4403.09 5248.64C4407.2 5257.91 4411.5 5267.63 4415.37 5277.85C4423.36 5298.99 4429.6 5322.57 4428.98 5350.51C4428.46 5374.23 4424.25 5390.49 4417.96 5402.78C4411.74 5414.95 4403.72 5422.72 4396.72 5429.51L4396.53 5429.69C4390.14 5435.88 4384.83 5441.08 4380.9 5448.38C4377.39 5454.91 4374.78 5463.52 4374.35 5476.45C4462.3 5528.76 4549.34 5550.38 4614.71 5558.88C4647.81 5563.19 4675.31 5564.12 4694.5 5563.99C4704.1 5563.92 4711.61 5563.59 4716.69 5563.27C4718.48 5563.16 4719.97 5563.05 4721.15 5562.96C4743.68 5528.56 4764.21 5471.82 4780.11 5413.54C4795.58 5356.88 4806.44 5299.65 4810.52 5261.85C4674.71 5222.59 4589.59 5082.42 4610.06 4937.81C4610.08 4937.6 4610.1 4937.44 4610.11 4937.38L4610.11 4937.36C4610.14 4937.14 4610.18 4936.89 4610.22 4936.63C4610.31 4936.11 4610.43 4935.4 4610.59 4934.55C4610.9 4932.84 4611.36 4930.42 4611.95 4927.4C4613.14 4921.34 4614.89 4912.79 4617.12 4902.43C4621.59 4881.73 4628.02 4853.78 4635.87 4824.13C4643.71 4794.49 4652.99 4763.06 4663.17 4735.44C4673.28 4708.02 4684.53 4683.63 4696.53 4668.63L4697.62 4667.27L4699.21 4666.58C4706.29 4663.51 4713.64 4660.09 4721.31 4656.52C4757.69 4639.58 4801.32 4619.26 4857.82 4617.03C4926.59 4614.31 5013.69 4638.19 5131.42 4723.57L5138.83 4728.95L5131.7 4734.69C5073.36 4781.71 5060.75 4844.06 5063.45 4897C5065.5 4937.4 5076.45 4971.77 5082.63 4988.95C5086.88 4982.73 5089.59 4974.92 5091.63 4965.74C5093.04 4959.4 5094.06 4952.71 5095.14 4945.72L5095.31 4944.61C5096.43 4937.3 5097.63 4929.68 5099.38 4922.32C5102.86 4907.63 5108.76 4892.94 5121.84 4882.54C5134.95 4872.12 5154.06 4866.96 5181.89 4868.51L5190.05 4868.97L5188.35 4876.96L5146.74 5072.25L5146.67 5072.58L5146.57 5072.9C5131.7 5120.02 5106.21 5160.86 5073.62 5193.1C5073.34 5193.56 5072.94 5194.24 5072.42 5195.13C5071.36 5196.94 5069.84 5199.59 5067.99 5202.92C5064.29 5209.6 5059.32 5218.97 5054.21 5229.75C5043.9 5251.54 5033.48 5278.3 5031.47 5300.14C5029.43 5322.31 5035.01 5350.91 5041.39 5374.54C5044.55 5386.24 5047.84 5396.5 5050.34 5403.83C5050.87 5405.36 5051.35 5406.76 5051.8 5408.01C5070.23 5399.2 5086.7 5399.86 5100.81 5408.07C5116.06 5416.95 5127.23 5433.93 5135.54 5452.82C5150.74 5487.33 5158.05 5532.09 5161.42 5559.86C5252.52 5538.97 5322.87 5517.75 5370.73 5501.63C5395.33 5493.35 5413.98 5486.42 5426.47 5481.56C5432.71 5479.13 5437.41 5477.22 5440.54 5475.93C5441.32 5475.61 5442 5475.32 5442.58 5475.08Z" fill="#FC909F" stroke="black" stroke-width="14"/>
<path d="M5151.95 4876.01C5160.48 4873.2 5169.69 4871.71 5179.13 4871.71C5217.57 4871.71 5248.73 4895.52 5245.06 4939.47C5241.25 4985.26 5213.9 5001.75 5175.46 5001.75C5171.19 5001.75 5167 5001.37 5162.94 5000.65C5158.5 4999.87 5154.21 4998.67 5150.11 4997.11" stroke="black" stroke-width="29.3053"/>
<path d="M5148.28 4996.39C5156.63 4999.84 5165.82 5001.75 5175.46 5001.75C5213.9 5001.75 5241.25 4985.26 5245.06 4939.47C5248.73 4895.52 5217.57 4871.71 5179.13 4871.71C5167.63 4871.71 5156.46 4873.93 5146.45 4878.04L5148.28 4996.39Z" fill="#77311D"/>
<path d="M5162.94 4902.84C5177.59 4896.13 5209.82 4892.59 5221.55 4932.15" stroke="black" stroke-width="14.6526"/>
<path d="M5201.4 4904.67C5193.46 4911.39 5178.32 4932.15 5181.25 4961.45" stroke="black" stroke-width="14.6526"/>
<path d="M5164.77 4981.6C5116.21 4981.6 5076.85 5020.96 5076.85 5069.52C5076.85 5118.07 5116.21 5157.43 5164.77 5157.43C5213.32 5157.43 5252.68 5118.07 5252.68 5069.52C5252.68 5046.1 5239.86 5027.39 5228.61 5009.07L5225.21 5003.58" stroke="#F4D150" stroke-width="14.6526"/>
<path d="M4423.47 5618.49H5423.18C5423.06 5618.23 5422.93 5617.97 5422.8 5617.71C5406.15 5583.81 5375.44 5521.26 5335.47 5465.29C5312.78 5433.53 5287.38 5404.28 5260.23 5383.71C5233.08 5363.14 5204.84 5351.73 5176.16 5354.24C5121.01 5359.07 5071.89 5389.26 5022.58 5419.57C5017.91 5422.44 5013.23 5425.32 5008.55 5428.17C4955.49 5460.51 4901 5490.53 4841.08 5477.39C4820.8 5472.95 4807.14 5463.43 4798.54 5451.15C4790.07 5439.03 4787.02 5424.95 4786.49 5412.08C4785.96 5399.2 4787.94 5387.02 4789.99 5378.16C4790.95 5374.02 4791.94 5370.55 4792.73 5368.01C4779.45 5354.64 4765.39 5346.86 4750.87 5343.35C4735.14 5339.55 4718.32 5340.65 4700.62 5345.88C4664.98 5356.43 4626.85 5383.44 4589.63 5418.17C4521.44 5481.81 4458.88 5568.89 4423.47 5618.49Z" fill="white" stroke="black" stroke-width="15.6575"/>
</g>
<mask id="mask6_264_1225" style="mask-type:alpha" maskUnits="userSpaceOnUse" x="0" y="4216" width="1389" height="1392">
<ellipse cx="694.5" cy="4912" rx="694.5" ry="696" fill="#FFEDEF"/>
</mask>
<g mask="url(#mask6_264_1225)">
<g clip-path="url(#clip2_264_1225)">
<path d="M893.1 5543.9C840.351 5470.63 799.079 5328.99 794.195 5258.17L543.269 5150.11L438.869 5543.9H893.1Z" fill="#F9C9B6" stroke="black" stroke-width="14.6526"/>
<mask id="mask7_264_1225" style="mask-type:alpha" maskUnits="userSpaceOnUse" x="438" y="5150" width="456" height="431">
<path d="M893.1 5580.53C840.351 5507.27 799.079 5328.99 794.195 5258.17L543.269 5150.11L438.869 5580.53H893.1Z" fill="#F9C9B6"/>
</mask>
<g mask="url(#mask7_264_1225)">
<g style="mix-blend-mode:multiply">
<ellipse cx="783.206" cy="5142.78" rx="216.126" ry="197.811" fill="black"/>
</g>
</g>
<mask id="path-60-inside-3_264_1225" fill="white">
<path fill-rule="evenodd" clip-rule="evenodd" d="M1002.58 4926.35C1002.48 4925.93 1002.38 4925.5 1002.28 4925.08C1002.18 4924.65 1002.07 4924.23 1001.97 4923.81L941.906 4673.11C941.847 4672.86 941.788 4672.61 941.729 4672.37C941.67 4672.12 941.61 4671.87 941.551 4671.63L941.283 4670.51L941.278 4670.51C903.848 4518.69 750.813 4425.34 598.52 4461.83C446.227 4498.32 352.112 4650.88 387.545 4803.18L387.538 4803.18L449.78 5062.97L449.831 5062.95C488.671 5212.79 640.572 5304.51 791.742 5268.29C942.913 5232.07 1036.76 5081.48 1003.48 4930.31L1003.53 4930.29L1002.58 4926.35Z"/>
</mask>
<path fill-rule="evenodd" clip-rule="evenodd" d="M1002.58 4926.35C1002.48 4925.93 1002.38 4925.5 1002.28 4925.08C1002.18 4924.65 1002.07 4924.23 1001.97 4923.81L941.906 4673.11C941.847 4672.86 941.788 4672.61 941.729 4672.37C941.67 4672.12 941.61 4671.87 941.551 4671.63L941.283 4670.51L941.278 4670.51C903.848 4518.69 750.813 4425.34 598.52 4461.83C446.227 4498.32 352.112 4650.88 387.545 4803.18L387.538 4803.18L449.78 5062.97L449.831 5062.95C488.671 5212.79 640.572 5304.51 791.742 5268.29C942.913 5232.07 1036.76 5081.48 1003.48 4930.31L1003.53 4930.29L1002.58 4926.35Z" fill="#F9C9B6"/>
<path d="M1002.58 4926.35L988.316 4929.7L988.324 4929.74L988.332 4929.77L1002.58 4926.35ZM1002.28 4925.08L1016.53 4921.67L1016.53 4921.66L1002.28 4925.08ZM1001.97 4923.81L987.721 4927.22L987.729 4927.25L987.736 4927.28L1001.97 4923.81ZM941.906 4673.11L927.648 4676.49L927.652 4676.5L927.656 4676.52L941.906 4673.11ZM941.551 4671.63L927.301 4675.04L927.306 4675.06L927.31 4675.08L941.551 4671.63ZM941.283 4670.51L955.533 4667.1L952.123 4652.87L937.889 4656.26L941.283 4670.51ZM941.278 4670.51L927.051 4674.02L930.531 4688.13L944.672 4684.77L941.278 4670.51ZM598.52 4461.83L601.934 4476.08L601.934 4476.08L598.52 4461.83ZM387.545 4803.18L390.977 4817.43L405.111 4814.02L401.817 4799.86L387.545 4803.18ZM387.538 4803.18L384.106 4788.94L369.879 4792.37L373.289 4806.6L387.538 4803.18ZM449.78 5062.97L435.531 5066.38L438.944 5080.63L453.191 5077.22L449.78 5062.97ZM449.831 5062.95L464.015 5059.28L460.406 5045.36L446.42 5048.7L449.831 5062.95ZM791.742 5268.29L788.328 5254.04L788.328 5254.04L791.742 5268.29ZM1003.48 4930.31L1000.07 4916.06L986.077 4919.41L989.17 4933.46L1003.48 4930.31ZM1003.53 4930.29L1006.94 4944.54L1021.19 4941.13L1017.77 4926.88L1003.53 4930.29ZM1016.85 4923C1016.74 4922.56 1016.63 4922.11 1016.53 4921.67L988.029 4928.49C988.126 4928.9 988.221 4929.3 988.316 4929.7L1016.85 4923ZM1016.53 4921.66C1016.42 4921.22 1016.31 4920.77 1016.2 4920.33L987.736 4927.28C987.835 4927.69 987.933 4928.09 988.029 4928.49L1016.53 4921.66ZM927.656 4676.52L987.721 4927.22L1016.22 4920.39L956.155 4669.7L927.656 4676.52ZM956.164 4669.73C956.102 4669.47 956.041 4669.21 955.978 4668.95L927.48 4675.78C927.536 4676.02 927.592 4676.25 927.648 4676.49L956.164 4669.73ZM955.978 4668.95C955.916 4668.69 955.854 4668.43 955.791 4668.18L927.31 4675.08C927.367 4675.31 927.424 4675.55 927.48 4675.78L955.978 4668.95ZM927.034 4673.93L927.301 4675.04L955.8 4668.21L955.533 4667.1L927.034 4673.93ZM944.672 4684.77L944.677 4684.77L937.889 4656.26L937.884 4656.26L944.672 4684.77ZM955.505 4667C916.147 4507.37 755.238 4409.22 595.106 4447.58L601.934 4476.08C746.389 4441.47 891.548 4530.02 927.051 4674.02L955.505 4667ZM595.106 4447.58C434.975 4485.95 336.017 4646.37 373.274 4806.5L401.817 4799.86C368.208 4655.4 457.48 4510.69 601.934 4476.08L595.106 4447.58ZM390.97 4817.43L390.977 4817.43L384.113 4788.94L384.106 4788.94L390.97 4817.43ZM464.029 5059.55L401.788 4799.77L373.289 4806.6L435.531 5066.38L464.029 5059.55ZM446.42 5048.7L446.369 5048.72L453.191 5077.22L453.242 5077.21L446.42 5048.7ZM435.647 5066.63C476.487 5224.19 636.204 5320.62 795.156 5282.54L788.328 5254.04C644.939 5288.39 500.854 5201.4 464.015 5059.28L435.647 5066.63ZM795.156 5282.54C954.108 5244.45 1052.78 5086.11 1017.79 4927.16L989.17 4933.46C1020.74 5076.84 931.717 5219.68 788.328 5254.04L795.156 5282.54ZM1000.11 4916.05L1000.07 4916.06L1006.89 4944.55L1006.94 4944.54L1000.11 4916.05ZM988.332 4929.77L989.276 4933.71L1017.77 4926.88L1016.83 4922.94L988.332 4929.77Z" fill="black" mask="url(#path-60-inside-3_264_1225)"/>
</g>
<path d="M789.774 5160.48C829.472 5153.29 852.729 5109.43 844.64 5064.73C836.551 5020.04 799.395 4987.1 759.697 4994.29C719.999 5001.47 696.742 5045.34 704.831 5090.03C712.919 5134.73 750.076 5167.66 789.774 5160.48Z" fill="black" stroke="black" stroke-width="13.1549"/>
<mask id="mask8_264_1225" style="mask-type:alpha" maskUnits="userSpaceOnUse" x="709" y="4999" width="131" height="156">
<ellipse cx="774.735" cy="5077.38" rx="64.4627" ry="77.8679" transform="rotate(-10.2582 774.735 5077.38)" fill="#171921"/>
</mask>
<g mask="url(#mask8_264_1225)">
<ellipse cx="786.678" cy="5143.36" rx="74.0127" ry="67.0529" transform="rotate(-10.2582 786.678 5143.36)" fill="#FC909F"/>
</g>
<circle cx="610.593" cy="4799.4" r="43.9579" transform="rotate(-6.27568 610.593 4799.4)" fill="#D2EFF3"/>
<ellipse cx="615.32" cy="4832.97" rx="32.9684" ry="49.4526" transform="rotate(-6.77646 615.32 4832.97)" fill="black"/>
<circle cx="844.227" cy="4767.8" r="43.9579" transform="rotate(-6.27568 844.227 4767.8)" fill="#D2EFF3"/>
<ellipse cx="849.762" cy="4796.34" rx="32.9684" ry="49.4526" transform="rotate(-6.27568 849.762 4796.34)" fill="black"/>
<path d="M801.285 4700.32C822.043 4690.56 870.885 4681.64 900.19 4724.13" stroke="black" stroke-width="14.6526" stroke-linecap="round"/>
<path d="M525.006 4793.03C532.591 4771.37 560.473 4730.29 611.32 4739.18" stroke="black" stroke-width="14.6526" stroke-linecap="round"/>
<path d="M534.146 4770.82L511.623 4750.94" stroke="black" stroke-width="14.6526" stroke-linecap="round"/>
<path d="M889.058 4703.78L911.58 4683.9" stroke="black" stroke-width="14.6526" stroke-linecap="round"/>
<path d="M557.77 4750.14L542.946 4724.01" stroke="black" stroke-width="14.6526" stroke-linecap="round"/>
<path d="M861.77 4690.43L876.594 4664.3" stroke="black" stroke-width="14.6526" stroke-linecap="round"/>
<path d="M587.354 4736.9L579.292 4707.97" stroke="black" stroke-width="14.6526" stroke-linecap="round"/>
<path d="M828.523 4688.18L836.585 4659.24" stroke="black" stroke-width="14.6526" stroke-linecap="round"/>
<path d="M602.778 4654.6C609.693 4655.69 609.692 4655.7 609.691 4655.7L609.689 4655.72L609.685 4655.74L609.673 4655.81C609.665 4655.86 609.654 4655.92 609.641 4655.99C609.614 4656.14 609.577 4656.33 609.529 4656.57C609.431 4657.04 609.285 4657.68 609.072 4658.5C608.648 4660.14 607.96 4662.46 606.872 4665.44C604.694 4671.39 600.916 4679.94 594.442 4690.8C582.831 4710.28 562.568 4737.17 527.349 4769.88C637.136 4772.62 728.837 4737.25 794.106 4700.16C828.395 4680.68 855.323 4660.75 873.657 4645.72C882.821 4638.2 889.83 4631.92 894.53 4627.53C896.879 4625.34 898.651 4623.62 899.826 4622.46C900.413 4621.88 900.85 4621.44 901.136 4621.15C901.279 4621 901.384 4620.89 901.451 4620.83L901.523 4620.75L901.537 4620.74L901.539 4620.74L909.896 4612.04L913.299 4623.61L906.583 4625.59C913.299 4623.61 913.299 4623.61 913.3 4623.62L913.302 4623.62L913.311 4623.66L913.348 4623.78L913.49 4624.27C913.617 4624.7 913.804 4625.34 914.048 4626.17C914.537 4627.84 915.256 4630.31 916.177 4633.47C918.017 4639.8 920.663 4648.94 923.885 4660.19C930.329 4682.67 939.079 4713.58 948.305 4747.25C966.721 4814.45 987.149 4893.09 994.803 4937.62C1007.6 5012.05 987.814 5068.56 976.112 5101.98C973.837 5108.48 971.868 5114.11 970.502 5118.82C970.698 5118.99 970.955 5119.19 971.289 5119.42C973.476 5120.97 977.355 5122.76 982.96 5124.54C994.007 5128.06 1009.77 5130.93 1026.63 5132.56C1043.46 5134.18 1060.98 5134.51 1075.49 5133.09C1082.75 5132.38 1089.06 5131.25 1094.08 5129.72C1098.9 5128.25 1101.92 5126.58 1103.55 5125.08C1103.6 5124.76 1103.66 5124.01 1103.48 5122.56C1103.12 5119.72 1102 5115.71 1100.05 5110.42C1097.14 5102.52 1092.83 5092.85 1087.8 5081.53C1086.09 5077.7 1084.3 5073.68 1082.45 5069.47C1068.06 5036.72 1050.74 4994.14 1046.97 4950.75C1042.78 4902.55 1052.3 4861.31 1060.87 4824.25L1061.27 4822.49C1070.02 4784.61 1077.3 4751.72 1069.83 4718.39C1058.49 4667.8 1043.02 4625.68 1019.26 4595.41C995.754 4565.47 963.873 4546.78 918.538 4543.35L913.856 4542.99L912.408 4538.53C891.548 4474.16 863.386 4432.11 827.474 4406.03C791.576 4379.96 747.048 4369.21 692.161 4369.21C590.737 4369.21 481.519 4407.74 399.557 4474.41C317.68 4541.01 263.494 4635.21 270.584 4746.7C278.409 4869.75 269.491 4963.06 249.381 5031.38C231.043 5093.68 203.25 5135.65 169.936 5160.14C174.307 5162.37 180.134 5165.2 187.413 5168.45C205.827 5176.66 233.535 5187.49 270.47 5197.85C341.296 5217.73 446.102 5235.88 584.444 5230.41C553.949 5204.21 523.182 5172.43 498.821 5138.83C470.861 5100.27 450.705 5058.45 450.115 5019.5C449.414 4973.25 452.547 4852.21 453.516 4827.16C455.768 4768.93 493.156 4724.04 528.75 4694.19C546.65 4679.17 564.383 4667.71 577.631 4660.01C584.262 4656.15 589.788 4653.22 593.674 4651.25C595.617 4650.26 597.152 4649.52 598.212 4649.01C598.742 4648.76 599.153 4648.57 599.437 4648.43C599.512 4648.4 599.579 4648.37 599.636 4648.34C599.687 4648.32 599.73 4648.3 599.767 4648.28L599.858 4648.24L599.885 4648.23L599.894 4648.22C599.897 4648.22 599.9 4648.22 602.778 4654.6ZM602.778 4654.6L609.693 4655.69L611.712 4642.89L599.9 4648.22L602.778 4654.6ZM969.94 5118.24C969.948 5118.24 969.992 5118.29 970.044 5118.39C969.957 5118.29 969.931 5118.24 969.94 5118.24Z" fill="#D2EFF3" stroke="black" stroke-width="14"/>
<path d="M915.324 4542.02C917.156 4558.5 914.225 4591.47 909.83 4613.45" stroke="black" stroke-width="14.6526"/>
<path d="M744.013 4849.74C744.754 4863.81 750.219 4894 766.153 4902.11C786.071 4912.25 770.444 4945.9 733.153 4943.75" stroke="black" stroke-width="14.6526"/>
<path d="M479.132 4883.61V4879.51L475.638 4877.36C461.96 4868.97 445.327 4864.38 428.141 4864.38C407.48 4864.38 388.136 4870.78 374.358 4883.78C360.425 4896.92 352.907 4916.13 354.903 4940.08C356.848 4963.42 364.684 4980.6 377.68 4992.02C376.613 4995.68 376.298 4999.62 376.792 5003.77C378.218 5015.75 384.271 5024.37 393.624 5029.69C402.54 5034.76 413.95 5036.55 426.105 5036.55C446.176 5036.55 463.775 5025.75 477.176 5011.31L479.132 5009.2V5006.33V4883.61Z" stroke="black" stroke-width="14.6526"/>
<path fill-rule="evenodd" clip-rule="evenodd" d="M501.008 4941.25C501.27 4938.86 501.404 4936.44 501.404 4933.98C501.404 4896.55 466.58 4871.71 428.141 4871.71C389.702 4871.71 358.541 4895.52 362.204 4939.47C364.242 4963.93 372.995 4980.03 386.567 4989.72C384.411 4993.47 383.468 4997.88 384.067 5002.91C386.372 5022.26 402.888 5029.22 426.105 5029.22C466.784 5029.22 498.97 4977.77 501.008 4941.25Z" fill="#F9C9B6"/>
<path d="M444.332 4902.84C429.68 4896.13 397.444 4892.59 385.722 4932.15" stroke="black" stroke-width="14.6526"/>
<path d="M405.869 4904.67C413.806 4911.39 428.947 4932.15 426.017 4961.45" stroke="black" stroke-width="14.6526"/>
<circle cx="420.522" cy="5007.24" r="14.6526" fill="white"/>
<circle cx="424.185" cy="5003.58" r="3.66316" fill="#FFEDEF"/>
<path d="M695.161 5533.19C695.161 5533.19 695.162 5533.19 699.663 5527.41L695.162 5533.19L701.468 5538.1L705.812 5531.39L705.813 5531.39L705.82 5531.38L705.854 5531.33C705.886 5531.28 705.936 5531.2 706.004 5531.1C706.064 5531.01 706.137 5530.9 706.224 5530.77C706.335 5530.6 706.468 5530.4 706.622 5530.17C707.173 5529.34 707.998 5528.12 709.076 5526.57C711.233 5523.45 714.399 5518.99 718.412 5513.66C726.447 5502.98 737.819 5488.88 751.209 5475.09C764.635 5461.27 779.878 5447.98 795.629 5438.74C811.441 5429.46 827.056 5424.66 841.547 5426.61C997.007 5447.57 1111.41 5516.43 1185.67 5618.99H184.53C244.238 5511.51 329.164 5443.09 466.85 5411.7C472.717 5410.36 480.695 5410.77 490.67 5413.09C500.542 5415.38 511.797 5419.42 523.935 5424.75C548.21 5435.42 575.308 5450.98 600.773 5467.1C626.199 5483.2 649.809 5499.73 667.075 5512.24C675.703 5518.5 682.737 5523.74 687.609 5527.42C690.044 5529.26 691.939 5530.71 693.221 5531.69C693.477 5531.89 693.708 5532.07 693.914 5532.23C694.226 5532.47 694.481 5532.66 694.677 5532.81C694.84 5532.94 694.963 5533.04 695.044 5533.1L695.135 5533.17L695.156 5533.19L695.161 5533.19Z" fill="#9287FF" stroke="black" stroke-width="14.6526"/>
<path d="M423.507 5421.49L442.434 5351.04C443.2 5348.19 446.891 5347.38 448.884 5349.56C503.33 5409.14 572.038 5406.81 594.843 5404.07C597.938 5403.7 600.362 5407.09 598.908 5409.85L550.712 5501.25C549.973 5502.65 548.461 5503.43 546.911 5503.1C532.446 5500.09 460.376 5482.47 423.932 5424.36C423.399 5423.51 423.247 5422.46 423.507 5421.49Z" fill="#E0DDFF" stroke="black" stroke-width="14.6526"/>
<path d="M901.851 5421.11L859.429 5349.75C857.989 5347.32 854.441 5347.36 852.906 5349.73C831.89 5382.09 795.644 5397 782.97 5401.41C780.69 5402.2 779.647 5404.91 780.876 5406.99L830.338 5490.56C831.076 5491.81 832.471 5492.49 833.864 5492.09C841.684 5489.86 868.518 5478.64 901.803 5424.92C902.518 5423.77 902.545 5422.28 901.851 5421.11Z" fill="#E0DDFF" stroke="black" stroke-width="14.6526"/>
<path d="M631.895 5485.29L598.926 5406.53L573.284 5461.48L631.895 5485.29Z" fill="black" stroke="black" stroke-width="14.6526" stroke-linejoin="round"/>
<path d="M747.284 5481.62L780.252 5402.87L805.895 5457.81L747.284 5481.62Z" fill="black" stroke="black" stroke-width="14.6526" stroke-linejoin="round"/>
<path d="M489.032 5336.93L445.074 5347.92L481.705 5371.73L489.032 5336.93Z" fill="black" stroke="black" stroke-width="14.6526" stroke-linejoin="round"/>
<path d="M816.884 5336.93L857.179 5347.92L831.537 5371.73L816.884 5336.93Z" fill="black" stroke="black" stroke-width="14.6526" stroke-linejoin="round"/>
</g>
<mask id="mask9_264_1225" style="mask-type:alpha" maskUnits="userSpaceOnUse" x="0" y="0" width="1392" height="1392">
<circle cx="696" cy="696" r="696" fill="#FFEDEF"/>
</mask>
<g mask="url(#mask9_264_1225)">
<g clip-path="url(#clip3_264_1225)">
<path d="M893.811 1327.9C841.061 1254.63 799.79 1112.99 794.905 1042.17L543.979 934.107L439.579 1327.9H893.811Z" fill="#AC6651" stroke="black" stroke-width="14.6526"/>
<mask id="mask10_264_1225" style="mask-type:alpha" maskUnits="userSpaceOnUse" x="439" y="934" width="455" height="431">
<path d="M893.811 1364.53C841.061 1291.27 799.79 1112.99 794.905 1042.17L543.979 934.107L439.579 1364.53H893.811Z" fill="#AC6651"/>
</mask>
<g mask="url(#mask10_264_1225)">
<g style="mix-blend-mode:multiply">
<ellipse cx="783.916" cy="926.78" rx="216.126" ry="197.811" fill="black"/>
</g>
</g>
<mask id="path-97-inside-4_264_1225" fill="white">
<path fill-rule="evenodd" clip-rule="evenodd" d="M1003.29 710.354C1003.19 709.929 1003.09 709.504 1002.99 709.079C1002.89 708.654 1002.78 708.23 1002.68 707.806L942.616 457.109C942.558 456.862 942.499 456.615 942.44 456.368C942.38 456.121 942.321 455.874 942.261 455.627L941.994 454.511L941.989 454.512C904.558 302.694 751.524 209.343 599.231 245.831C446.938 282.32 352.823 434.885 388.256 587.182L388.249 587.184L450.49 846.967L450.541 846.955C489.381 996.795 641.282 1088.51 792.453 1052.29C943.623 1016.07 1037.47 865.478 1004.19 714.305L1004.24 714.295L1003.29 710.354Z"/>
</mask>
<path fill-rule="evenodd" clip-rule="evenodd" d="M1003.29 710.354C1003.19 709.929 1003.09 709.504 1002.99 709.079C1002.89 708.654 1002.78 708.23 1002.68 707.806L942.616 457.109C942.558 456.862 942.499 456.615 942.44 456.368C942.38 456.121 942.321 455.874 942.261 455.627L941.994 454.511L941.989 454.512C904.558 302.694 751.524 209.343 599.231 245.831C446.938 282.32 352.823 434.885 388.256 587.182L388.249 587.184L450.49 846.967L450.541 846.955C489.381 996.795 641.282 1088.51 792.453 1052.29C943.623 1016.07 1037.47 865.478 1004.19 714.305L1004.24 714.295L1003.29 710.354Z" fill="#AC6651"/>
<path d="M1003.29 710.354L989.027 713.704L989.034 713.736L989.042 713.768L1003.29 710.354ZM1002.99 709.079L1017.24 705.665L1017.24 705.665L1002.99 709.079ZM1002.68 707.806L988.432 711.22L988.439 711.252L988.447 711.283L1002.68 707.806ZM942.616 457.109L928.358 460.487L928.362 460.505L928.367 460.523L942.616 457.109ZM942.261 455.627L928.012 459.041L928.016 459.06L928.021 459.078L942.261 455.627ZM941.994 454.511L956.243 451.097L952.834 436.868L938.6 440.257L941.994 454.511ZM941.989 454.512L927.762 458.02L931.242 472.133L945.382 468.767L941.989 454.512ZM599.231 245.831L602.645 260.081L602.645 260.081L599.231 245.831ZM388.256 587.182L391.687 601.427L405.822 598.022L402.527 583.862L388.256 587.182ZM388.249 587.184L384.817 572.938L370.589 576.366L373.999 590.598L388.249 587.184ZM450.49 846.967L436.241 850.381L439.654 864.627L453.901 861.217L450.49 846.967ZM450.541 846.955L464.725 843.278L461.117 829.357L447.131 832.705L450.541 846.955ZM792.453 1052.29L789.039 1038.04L789.039 1038.04L792.453 1052.29ZM1004.19 714.305L1000.78 700.056L986.788 703.407L989.88 717.456L1004.19 714.305ZM1004.24 714.295L1007.65 728.544L1021.9 725.13L1018.48 710.88L1004.24 714.295ZM1017.56 707.004C1017.45 706.559 1017.35 706.112 1017.24 705.665L988.74 712.493C988.836 712.896 988.932 713.3 989.027 713.704L1017.56 707.004ZM1017.24 705.665C1017.13 705.218 1017.02 704.773 1016.91 704.329L988.447 711.283C988.545 711.687 988.643 712.09 988.74 712.494L1017.24 705.665ZM928.367 460.523L988.432 711.22L1016.93 704.392L956.865 453.695L928.367 460.523ZM956.874 453.731C956.813 453.473 956.751 453.214 956.689 452.953L928.19 459.782C928.246 460.016 928.302 460.251 928.358 460.487L956.874 453.731ZM956.689 452.953C956.627 452.694 956.564 452.435 956.501 452.175L928.021 459.078C928.077 459.313 928.134 459.547 928.19 459.782L956.689 452.953ZM927.744 457.925L928.012 459.041L956.51 452.213L956.243 451.097L927.744 457.925ZM945.382 468.767L945.388 468.765L938.6 440.257L938.595 440.258L945.382 468.767ZM956.215 451.005C916.858 291.371 755.948 193.216 595.817 231.582L602.645 260.081C747.099 225.471 892.258 314.017 927.762 458.02L956.215 451.005ZM595.817 231.582C435.685 269.948 336.727 430.365 373.984 590.502L402.527 583.862C368.918 439.405 458.19 294.691 602.645 260.081L595.817 231.582ZM391.68 601.429L391.687 601.427L384.824 572.937L384.817 572.938L391.68 601.429ZM464.74 843.553L402.498 583.77L373.999 590.598L436.241 850.381L464.74 843.553ZM447.131 832.705L447.08 832.717L453.901 861.217L453.952 861.205L447.131 832.705ZM436.358 850.631C477.198 1008.19 636.915 1104.62 795.867 1066.54L789.039 1038.04C645.65 1072.39 501.565 985.401 464.725 843.278L436.358 850.631ZM795.867 1066.54C954.819 1028.45 1053.49 870.113 1018.5 711.155L989.88 717.456C1021.45 860.842 932.428 1003.68 789.039 1038.04L795.867 1066.54ZM1000.82 700.045L1000.78 700.056L1007.6 728.555L1007.65 728.544L1000.82 700.045ZM989.042 713.768L989.986 717.709L1018.48 710.88L1017.54 706.94L989.042 713.768Z" fill="black" mask="url(#path-97-inside-4_264_1225)"/>
</g>
<path d="M889.443 835.849C893.346 821.722 894.723 807.031 893.522 792.451C892.898 784.878 885.154 780.66 878.592 783.246C863.101 789.35 811.856 808.763 775.723 813.733C736.078 819.187 676.039 812.564 658.661 810.406C651.594 809.528 645.294 815.602 646.514 822.983C648.901 837.426 653.818 851.348 661.051 864.106C669.118 878.333 679.908 890.833 692.806 900.891C705.704 910.949 720.457 918.367 736.222 922.724C751.986 927.08 768.455 928.289 784.687 926.28C800.919 924.272 816.597 919.087 830.825 911.019C845.053 902.952 857.552 892.162 867.61 879.264C877.668 866.366 885.087 851.614 889.443 835.849Z" fill="black" stroke="black" stroke-width="14.6526"/>
<mask id="mask11_264_1225" style="mask-type:alpha" maskUnits="userSpaceOnUse" x="653" y="788" width="234" height="132">
<path d="M885.729 788.283C887.619 803.56 886.481 819.06 882.381 833.897C878.281 848.735 871.299 862.62 861.833 874.759C852.367 886.898 840.602 897.054 827.211 904.646C813.82 912.239 799.065 917.119 783.788 919.01C768.51 920.9 753.01 919.762 738.173 915.662C723.335 911.562 709.451 904.58 697.311 895.113C685.172 885.647 675.016 873.883 667.424 860.492C659.831 847.101 654.951 832.346 653.061 817.068L885.729 788.283Z" fill="#171921"/>
</mask>
<g mask="url(#mask11_264_1225)">
<circle cx="785.829" cy="935.256" r="78.7579" transform="rotate(-7.05286 785.829 935.256)" fill="#FC909F"/>
</g>
<path d="M802.232 484.323C822.99 474.554 871.832 465.641 901.137 508.133" stroke="black" stroke-width="14.6526" stroke-linecap="round"/>
<path d="M525.953 577.025C533.538 555.374 561.42 514.294 612.267 523.182" stroke="black" stroke-width="14.6526" stroke-linecap="round"/>
<path opacity="0.35" d="M904.747 396.261C875.442 372.817 824.768 370.62 804.01 372.451L774.705 275.377C824.524 287.1 891.926 363.293 904.747 396.261Z" fill="#717376"/>
<path d="M530.398 156.65C530.398 156.65 551.416 142.138 640.124 119.789C728.832 97.4402 761.176 106.171 761.176 106.171L804.359 372.965C804.359 372.965 774.911 372.33 701.672 388.326C628.434 404.323 593.38 423.736 593.38 423.736L530.398 156.65Z" fill="#171921"/>
<path d="M395.568 431.062C370.659 278.674 481.042 181.357 531.105 154.493L593.379 423.736C523.046 278.674 427.316 368.178 395.568 431.062Z" fill="#171921"/>
<path opacity="0.35" d="M463.337 592.239C436.962 492.601 543.927 438.995 593.379 423.732C567.737 363.901 509.126 310.174 437.695 376.114C371.758 487.838 397.4 573.925 417.548 639.86L463.337 592.239Z" fill="#717376"/>
<path fill-rule="evenodd" clip-rule="evenodd" d="M576.333 634.076C576.752 637.054 580.537 637.717 582.641 635.569C591.671 626.353 605.554 619.582 621.669 617.667C631.174 616.538 640.32 617.233 648.468 619.397C651.23 620.13 653.944 617.798 652.98 615.109C646.88 598.092 629.661 586.906 610.946 589.13C589.182 591.716 573.636 611.455 576.222 633.219C576.256 633.505 576.293 633.791 576.333 634.076Z" fill="black"/>
<path fill-rule="evenodd" clip-rule="evenodd" d="M811.135 597.445C811.548 600.423 815.333 601.088 817.44 598.943C826.388 589.838 840.121 583.15 856.059 581.256C865.452 580.14 874.491 580.822 882.549 582.954C885.311 583.685 888.026 581.352 887.057 578.664C880.995 561.837 863.955 550.784 845.434 552.985C823.874 555.547 808.472 575.102 811.034 596.663C811.065 596.925 811.099 597.185 811.135 597.445Z" fill="#171921"/>
<path d="M733.648 655.438C752.771 648.162 786.118 650.36 784.065 687.355C782.24 720.234 748.507 726.763 737.76 719.096" stroke="black" stroke-width="14.6526"/>
<path d="M456.063 660.012C447.528 657.202 438.314 655.706 428.883 655.706C390.444 655.706 359.283 679.516 362.946 723.474C366.762 769.264 394.107 785.748 432.546 785.748C436.823 785.748 441.01 785.372 445.074 784.653C449.508 783.868 453.796 782.674 457.895 781.113" stroke="#171921" stroke-width="29.3053"/>
<path d="M459.726 780.386C451.376 783.838 442.19 785.748 432.546 785.748C394.107 785.748 366.762 769.264 362.946 723.474C359.283 679.516 390.444 655.706 428.883 655.706C440.376 655.706 451.546 657.927 461.558 662.042L459.726 780.386Z" fill="#AC6651"/>
<path d="M445.074 686.844C430.421 680.129 398.185 676.588 386.463 716.15" stroke="#171921" stroke-width="14.6526"/>
<path d="M406.611 688.674C414.548 695.39 429.689 716.148 426.758 745.453" stroke="#171921" stroke-width="14.6526"/>
<path d="M695.161 1317.19C695.161 1317.19 695.162 1317.19 699.663 1311.41L695.162 1317.19L701.468 1322.1L705.812 1315.39L705.813 1315.39L705.82 1315.38L705.854 1315.33C705.886 1315.28 705.936 1315.2 706.004 1315.1C706.064 1315.01 706.137 1314.9 706.224 1314.77C706.335 1314.6 706.468 1314.4 706.622 1314.17C707.173 1313.34 707.998 1312.12 709.076 1310.57C711.233 1307.45 714.399 1302.99 718.412 1297.66C726.447 1286.98 737.819 1272.88 751.209 1259.09C764.635 1245.27 779.878 1231.98 795.629 1222.74C811.441 1213.46 827.056 1208.66 841.547 1210.61C997.007 1231.57 1111.41 1300.43 1185.67 1402.99H184.53C244.238 1295.51 329.164 1227.09 466.85 1195.7C472.717 1194.36 480.695 1194.77 490.67 1197.09C500.542 1199.39 511.797 1203.42 523.935 1208.75C548.21 1219.42 575.308 1234.98 600.773 1251.1C626.199 1267.2 649.809 1283.73 667.075 1296.24C675.703 1302.5 682.737 1307.75 687.609 1311.42C690.044 1313.26 691.939 1314.71 693.221 1315.69C693.477 1315.89 693.708 1316.07 693.914 1316.23C694.226 1316.47 694.481 1316.66 694.677 1316.82C694.84 1316.94 694.963 1317.04 695.044 1317.1L695.135 1317.17L695.156 1317.19L695.161 1317.19Z" fill="#6BD9E9" stroke="black" stroke-width="14.6526"/>
<path d="M423.507 1205.49L442.434 1135.04C443.2 1132.19 446.891 1131.38 448.884 1133.56C503.33 1193.14 572.038 1190.81 594.843 1188.07C597.938 1187.7 600.362 1191.09 598.908 1193.85L550.712 1285.25C549.973 1286.65 548.461 1287.43 546.911 1287.1C532.446 1284.09 460.376 1266.47 423.932 1208.36C423.399 1207.51 423.247 1206.46 423.507 1205.49Z" fill="#D2EFF3" stroke="black" stroke-width="14.6526"/>
<path d="M901.851 1205.11L859.429 1133.75C857.989 1131.32 854.441 1131.36 852.906 1133.73C831.89 1166.09 795.644 1181 782.97 1185.41C780.69 1186.2 779.647 1188.91 780.876 1190.99L830.338 1274.56C831.076 1275.81 832.471 1276.49 833.864 1276.09C841.684 1273.86 868.518 1262.64 901.803 1208.92C902.518 1207.77 902.545 1206.28 901.851 1205.11Z" fill="#D2EFF3" stroke="black" stroke-width="14.6526"/>
<path d="M631.895 1269.29L598.926 1190.53L573.284 1245.48L631.895 1269.29Z" fill="black" stroke="black" stroke-width="14.6526" stroke-linejoin="round"/>
<path d="M747.284 1265.62L780.252 1186.87L805.895 1241.81L747.284 1265.62Z" fill="black" stroke="black" stroke-width="14.6526" stroke-linejoin="round"/>
<path d="M489.032 1120.93L445.074 1131.92L481.705 1155.73L489.032 1120.93Z" fill="black" stroke="black" stroke-width="14.6526" stroke-linejoin="round"/>
<path d="M816.884 1120.93L857.179 1131.92L831.537 1155.73L816.884 1120.93Z" fill="black" stroke="black" stroke-width="14.6526" stroke-linejoin="round"/>
</g>
<defs>
<clipPath id="clip0_264_1225">
<rect width="732.632" height="1172.21" fill="white" transform="matrix(-1 0 0 1 5278.32 157.517)"/>
</clipPath>
<clipPath id="clip1_264_1225">
<rect width="732.632" height="1172.21" fill="white" transform="matrix(-1 0 0 1 5278.33 4373.52)"/>
</clipPath>
<clipPath id="clip2_264_1225">
<rect width="731.053" height="1172.21" fill="white" transform="translate(328.974 4373.52)"/>
</clipPath>
<clipPath id="clip3_264_1225">
<rect width="732.632" height="1172.21" fill="white" transform="translate(329.685 157.517)"/>
</clipPath>
</defs>
</svg>
